<svg width="12" height="17" viewBox="0 0 12 17" fill="none" xmlns="http://www.w3.org/2000/svg">
<path fill-rule="evenodd" clip-rule="evenodd" d="M2.97962 0.628796H9.02004C9.72975 0.59071 10.4252 0.840428 10.953 1.32284C11.4808 1.80525 11.7975 2.48069 11.8331 3.2001V15.4969C11.8341 15.7431 11.7326 15.9784 11.5536 16.1449C11.3746 16.3113 11.1346 16.3936 10.8926 16.3714C10.6805 16.3715 10.4743 16.3008 10.3058 16.1703L6.56936 13.2929C6.21652 13.0247 5.73137 13.0247 5.37853 13.2929L1.67662 16.1703C1.51281 16.2972 1.31324 16.3677 1.10709 16.3714C0.865101 16.3936 0.625105 16.3113 0.446063 16.1449C0.26702 15.9784 0.165525 15.7431 0.166511 15.4969V3.2001C0.202198 2.48069 0.518875 1.80525 1.04665 1.32284C1.57443 0.840428 2.26991 0.59071 2.97962 0.628796ZM7.37187 12.2521L10.5215 14.701L10.5043 3.2001C10.4226 2.43759 9.75711 1.87939 9.00278 1.94068H2.96236C2.20804 1.87939 1.54255 2.43759 1.46089 3.2001V14.701L4.61053 12.2521C5.4261 11.6223 6.55631 11.6223 7.37187 12.2521Z" fill="#94A2B8"/>
</svg>
