<svg width="50" height="50" viewBox="0 0 50 50" fill="none" xmlns="http://www.w3.org/2000/svg">
<path fill-rule="evenodd" clip-rule="evenodd" d="M10.0396 0.833334H39.9602C45.0448 0.833334 49.1666 4.95516 49.1666 10.0397V39.9603C49.1666 45.0448 45.0448 49.1667 39.9602 49.1667H10.0396C4.95507 49.1667 0.833252 45.0448 0.833252 39.9603V10.0397C0.833252 4.95516 4.95507 0.833334 10.0396 0.833334ZM39.9602 45.7143C43.1381 45.7143 45.7142 43.1381 45.7142 39.9603V10.0397C45.7142 6.86185 43.1381 4.28571 39.9602 4.28571H10.0396C6.86177 4.28571 4.28563 6.86185 4.28563 10.0397V39.9603C4.28563 43.1381 6.86177 45.7143 10.0396 45.7143H39.9602Z" fill="#D6D6D6"/>
<path d="M37.8267 22.5416C36.9083 22.5531 36.1667 23.2644 36.1547 24.1454V27.2461L27.4382 18.8635C26.2287 17.7744 24.3452 17.7744 23.1357 18.8635L18.6771 23.1403L13.0816 18.0081C12.4349 17.6059 11.5853 17.6799 11.0247 18.1872C10.464 18.6946 10.3376 19.5038 10.7186 20.1465L16.4478 25.7064C17.6499 26.7927 19.526 26.7927 20.7281 25.7064L25.1866 21.4296L33.1229 29.0424H31.1388C30.2154 29.0424 29.4669 29.7604 29.4669 30.6462C29.4669 31.5319 30.2154 32.25 31.1388 32.25H37.8267C38.7501 32.25 39.4987 31.5319 39.4987 30.6462V24.2309C39.5168 23.7926 39.3493 23.3658 39.0345 23.0477C38.7196 22.7295 38.284 22.547 37.8267 22.5416V22.5416Z" fill="#D6D6D6"/>
</svg>
