<svg width="50" height="50" viewBox="0 0 50 50" fill="none" xmlns="http://www.w3.org/2000/svg">
<path fill-rule="evenodd" clip-rule="evenodd" d="M10.0396 0.833344H39.9602C45.0448 0.833344 49.1666 4.95517 49.1666 10.0397V39.9603C49.1666 45.0449 45.0448 49.1667 39.9602 49.1667H10.0396C4.95507 49.1667 0.833252 45.0449 0.833252 39.9603V10.0397C0.833252 4.95517 4.95507 0.833344 10.0396 0.833344ZM39.9602 45.7143C43.1381 45.7143 45.7142 43.1382 45.7142 39.9603V10.0397C45.7142 6.86186 43.1381 4.28572 39.9602 4.28572H10.0396C6.86177 4.28572 4.28563 6.86186 4.28563 10.0397V39.9603C4.28563 43.1382 6.86177 45.7143 10.0396 45.7143H39.9602Z" fill="#D6D6D6"/>
<path d="M37.6586 17.5198H30.7539C29.8005 17.5198 29.0277 18.2927 29.0277 19.246C29.0277 20.1994 29.8005 20.9722 30.7539 20.9722H32.8944L24.7007 29.1659L20.0975 24.5627C18.876 23.3454 16.9 23.3454 15.6785 24.5627L9.67133 30.3857C8.99823 31.0597 8.99823 32.1514 9.67133 32.8254C9.99329 33.1514 10.433 33.3339 10.8912 33.3317C11.3499 33.3366 11.7906 33.1536 12.111 32.8254L17.7959 27.1405L22.3991 31.7436C23.6285 32.9636 25.6118 32.9636 26.8412 31.7436L35.8404 22.7444V26.1508C35.8404 27.1041 36.6132 27.877 37.5666 27.877C38.5199 27.877 39.2928 27.1041 39.2928 26.1508V19.246C39.2827 18.3321 38.5707 17.5799 37.6586 17.5198V17.5198Z" fill="#D6D6D6"/>
</svg>
