<svg width="18" height="17" viewBox="0 0 18 17" fill="none" xmlns="http://www.w3.org/2000/svg">
<path fill-rule="evenodd" clip-rule="evenodd" d="M0.666504 8.56353C0.666504 4.1563 4.42731 0.583529 9.0665 0.583529C9.68369 0.580583 10.2991 0.647017 10.8998 0.781446C8.52221 1.42817 6.9661 3.59136 7.19565 5.93072C7.42521 8.27009 9.37539 10.1228 11.8379 10.3408C14.3004 10.5589 16.5774 9.08061 17.2582 6.82186C17.3997 7.39258 17.4696 7.9772 17.4665 8.56353C17.4665 12.9708 13.7057 16.5435 9.0665 16.5435C4.42731 16.5435 0.666504 12.9708 0.666504 8.56353ZM7.78564 9.77969C5.60649 7.71144 5.29014 4.46086 7.03317 2.04811C3.75245 2.97377 1.62224 5.97817 1.95214 9.21427C2.28205 12.4504 4.97955 15.0106 8.38628 15.321C11.793 15.6314 14.9535 13.6048 15.9248 10.4873C13.3867 12.1454 9.96478 11.8479 7.78564 9.77969Z" fill="#94A2B8"/>
</svg>
