<svg width="18" height="13" viewBox="0 0 18 13" fill="none" xmlns="http://www.w3.org/2000/svg">
<path fill-rule="evenodd" clip-rule="evenodd" d="M13.9998 0H3.99984C2.15889 0 0.666504 1.34315 0.666504 3V9.75C0.666504 11.4069 2.15889 12.75 3.99984 12.75H13.9998C15.8408 12.75 17.3332 11.4069 17.3332 9.75V3C17.3332 1.34315 15.8408 0 13.9998 0ZM3.99984 1.1925H13.9998C14.888 1.19403 15.6686 1.72247 15.9165 2.49L9.63317 6.6825C9.46097 6.83403 9.22749 6.91571 8.98678 6.90863C8.74607 6.90155 8.51901 6.80633 8.35817 6.645L2.09984 2.4975C2.34296 1.7323 3.11559 1.20162 3.99984 1.1925ZM1.9915 9.75C1.9915 10.7483 2.89067 11.5575 3.99984 11.5575H13.9998C15.1058 11.5534 15.9998 10.7453 15.9998 9.75V3.7275L10.3332 7.4775C9.97101 7.78095 9.49465 7.94976 8.99984 7.95C8.48546 7.94263 7.99246 7.76354 7.6165 7.4475L1.9915 3.6975V9.75Z" fill="#94A2B8"/>
</svg>
