<svg width="30" height="30" viewBox="0 0 30 30" fill="none" xmlns="http://www.w3.org/2000/svg">
<path fill-rule="evenodd" clip-rule="evenodd" d="M27.435 7.50072L19.095 1.33572C16.6555 -0.445241 13.3445 -0.445241 10.905 1.33572L2.58 7.50072C0.968163 8.66192 0.00915504 10.5242 0 12.5107V23.6557C0.0900367 27.2456 3.06997 30.0846 6.66 30.0007H23.34C26.93 30.0846 29.91 27.2456 30 23.6557V12.4957C29.9871 10.5178 29.035 8.66365 27.435 7.50072ZM27.75 23.6557C27.6605 26.0032 25.6876 27.8351 23.34 27.7507H6.66C4.31546 27.8268 2.34753 25.9995 2.25 23.6557V12.5107C2.258 11.2356 2.87726 10.0417 3.915 9.30072L12.24 3.15072C13.8841 1.95009 16.1159 1.95009 17.76 3.15072L26.085 9.31572C27.1219 10.0439 27.7423 11.2288 27.75 12.4957V23.6557ZM8.25 20.6257H21.75C22.3713 20.6257 22.875 21.1294 22.875 21.7507C22.875 22.3721 22.3713 22.8757 21.75 22.8757H8.25C7.62868 22.8757 7.125 22.3721 7.125 21.7507C7.125 21.1294 7.62868 20.6257 8.25 20.6257Z" fill="#D6D6D6"/>
</svg>
