<svg width="18" height="18" viewBox="0 0 18 18" fill="none" xmlns="http://www.w3.org/2000/svg">
<path fill-rule="evenodd" clip-rule="evenodd" d="M0.688047 5.54923C2.08403 2.18651 5.3686 -0.00381155 9.00956 4.97956e-06C11.3956 3.66596e-06 13.6838 0.948502 15.3701 2.63658C17.0564 4.32465 18.0025 6.61383 18 8.99987C18 12.6408 15.8062 15.9231 12.442 17.3156C9.07787 18.708 5.20613 17.9363 2.63293 15.3604C0.0597257 12.7845 -0.707934 8.91195 0.688047 5.54923ZM16.0661 11.7357C16.3954 10.8614 16.5617 9.93413 16.5566 8.99987C16.5778 7.28169 16.0121 5.6077 14.9529 4.25466C14.5283 4.9622 13.7265 6.01878 12.7359 6.01878C12.3548 5.98814 11.9713 6.02649 11.6039 6.13199V6.23576C11.6039 6.40557 12.0661 6.86783 12.3114 7.11311C12.9223 7.56861 13.329 8.24652 13.4435 8.99987C13.4435 10.5093 13.5944 10.9715 13.7265 11.0847C14.542 11.1431 15.3376 11.3644 16.0661 11.7357ZM1.4625 8.99987C1.45392 7.32164 2.00497 5.68843 3.02852 4.35843C3.29582 4.84595 3.81226 5.14418 4.36812 5.13201C5.13145 5.51689 5.80617 6.05666 6.34922 6.71689C5.94966 6.96257 5.58747 7.26439 5.27377 7.6131C5.24465 7.64114 5.21294 7.67201 5.17935 7.70472C4.9191 7.95815 4.54574 8.32172 4.38699 8.33007C3.95023 8.31687 3.52739 8.48457 3.21841 8.79355C2.90944 9.10253 2.74173 9.52536 2.75494 9.96212C2.75629 10.0703 2.78209 10.1767 2.83041 10.2734L3.67945 11.9715C3.69028 12.9482 3.84607 13.9179 4.14171 14.8488C2.42077 13.3965 1.43825 11.2516 1.4625 8.99987ZM6.43413 16.0941C7.25972 16.3938 8.13128 16.547 9.00956 16.5469V16.5752C11.606 16.5927 14.029 15.2743 15.4246 13.0847C14.8555 12.8092 14.248 12.6215 13.6227 12.5281C11.9907 12.5281 11.9906 10.1885 11.9906 9.05647C11.9906 8.88551 11.5701 8.46563 11.3102 8.20619C11.2976 8.19363 11.2854 8.18145 11.2737 8.1697C10.6671 7.71179 10.2641 7.03447 10.1511 6.28293C10.1511 4.65088 11.8114 4.65088 12.6982 4.65088C12.9435 4.64145 13.5284 3.94334 13.8868 3.24524C11.0895 0.877222 6.99515 0.861306 4.17944 3.20751C4.19372 3.28864 4.19372 3.37165 4.17944 3.45278C4.18888 3.6792 4.29265 3.6792 4.39642 3.6792C5.52848 3.6792 8.06618 5.98105 8.10391 7.05651C8.10542 7.29903 8.00314 7.53061 7.82287 7.69285C7.6426 7.85509 7.40156 7.9325 7.16053 7.90555C6.99072 7.91498 6.52847 8.37724 6.28319 8.62252C5.82427 9.2296 5.14804 9.63533 4.39642 9.75458C4.32095 9.75458 4.20775 9.75458 4.20775 9.84892L5.02849 11.4244C5.0768 11.5211 5.1026 11.6275 5.10396 11.7357C5.10396 12.764 5.33037 14.4338 5.82093 14.9337C6.1632 15.2303 6.38197 15.6443 6.43413 16.0941Z" fill="#94A2B8"/>
</svg>
