<svg width="15" height="13" viewBox="0 0 15 13" fill="none" xmlns="http://www.w3.org/2000/svg">
<path d="M14.3569 0C14.0038 0.00481891 13.7187 0.302456 13.714 0.671056V2.46054C13.7233 3.47199 13.3425 4.44483 12.6573 5.16007C11.9721 5.87531 11.0402 6.27285 10.0713 6.26319H2.1943L6.23992 2.01317C6.38639 1.74425 6.33778 1.40565 6.12222 1.19337C5.90667 0.981088 5.58002 0.950135 5.33137 1.11843L0.188631 6.48687C0.130527 6.54893 0.0840183 6.62175 0.0514914 6.70161C-0.0171638 6.86717 -0.0171638 7.055 0.0514914 7.22056C0.0840183 7.30042 0.130527 7.37324 0.188631 7.4353L5.33137 12.8037C5.58235 13.0654 5.98894 13.0654 6.23992 12.8037C6.49059 12.5418 6.49059 12.1173 6.23992 11.8553L2.1943 7.6053H10.0713C11.3826 7.61981 12.6443 7.08244 13.5715 6.11444C14.4988 5.14645 15.0136 3.82941 14.9997 2.46054V0.671056C14.9951 0.302456 14.71 0.00481891 14.3569 0Z" fill="#FF6A6A"/>
</svg>
