<svg width="30" height="30" viewBox="0 0 30 30" fill="none" xmlns="http://www.w3.org/2000/svg">
<path fill-rule="evenodd" clip-rule="evenodd" d="M3.87 0H10.125C11.989 0 13.5 1.51104 13.5 3.375V6.63C13.5 8.49396 11.989 10.005 10.125 10.005H3.87C2.00603 10.005 0.494995 8.49396 0.494995 6.63V3.375C0.494995 1.51104 2.00603 0 3.87 0ZM10.125 7.755C10.7429 7.74692 11.2419 7.24794 11.25 6.63V3.375C11.2419 2.75706 10.7429 2.25808 10.125 2.25H3.87C3.25205 2.25808 2.75307 2.75706 2.745 3.375V6.63C2.75307 7.24794 3.25205 7.74692 3.87 7.755H10.125Z" fill="#D6D6D6" fill-opacity="0.85"/>
<path fill-rule="evenodd" clip-rule="evenodd" d="M20.88 0H26.13C27.9939 0 29.505 1.51104 29.505 3.375V13.62C29.505 15.484 27.9939 16.995 26.13 16.995H20.88C19.9836 16.999 19.1229 16.6447 18.4891 16.0109C17.8552 15.3771 17.501 14.5163 17.505 13.62V3.375C17.505 1.51104 19.016 0 20.88 0ZM26.13 14.745C26.7513 14.745 27.255 14.2413 27.255 13.62V3.375C27.2469 2.75706 26.7479 2.25808 26.13 2.25H20.88C20.2586 2.25 19.755 2.75368 19.755 3.375V13.62C19.7509 13.9196 19.8681 14.2081 20.08 14.42C20.2918 14.6319 20.5804 14.7491 20.88 14.745H26.13Z" fill="#D6D6D6" fill-opacity="0.85"/>
<path fill-rule="evenodd" clip-rule="evenodd" d="M20.88 21H26.13C27.994 21 29.505 22.511 29.505 24.375V26.625C29.505 28.489 27.994 30 26.13 30H20.88C19.016 30 17.505 28.489 17.505 26.625V24.375C17.505 22.511 19.016 21 20.88 21ZM26.13 27.75C26.7479 27.7419 27.2469 27.2429 27.255 26.625V24.375C27.2469 23.7571 26.7479 23.2581 26.13 23.25H20.88C20.2587 23.25 19.755 23.7537 19.755 24.375V26.625C19.755 27.2463 20.2587 27.75 20.88 27.75H26.13Z" fill="#D6D6D6" fill-opacity="0.85"/>
<path fill-rule="evenodd" clip-rule="evenodd" d="M3.87 13.995H10.125C11.989 13.995 13.5 15.506 13.5 17.37V26.625C13.5 28.489 11.989 30 10.125 30H3.87C2.00603 30 0.494995 28.489 0.494995 26.625V17.37C0.494995 15.506 2.00603 13.995 3.87 13.995ZM10.125 27.75C10.7429 27.7419 11.2419 27.2429 11.25 26.625V17.37C11.2419 16.7521 10.7429 16.2531 10.125 16.245H3.87C3.25205 16.2531 2.75307 16.7521 2.745 17.37V26.625C2.75307 27.2429 3.25205 27.7419 3.87 27.75H10.125Z" fill="#D6D6D6" fill-opacity="0.85"/>
</svg>
