<svg width="30" height="30" viewBox="0 0 30 30" fill="none" xmlns="http://www.w3.org/2000/svg">
<path fill-rule="evenodd" clip-rule="evenodd" d="M5.71429 0H24.2857C27.4416 0 30 2.55837 30 5.71429V24.2857C30 27.4416 27.4416 30 24.2857 30H5.71429C2.55837 30 0 27.4416 0 24.2857V5.71429C0 2.55837 2.55837 0 5.71429 0ZM24.2857 27.8571C26.2582 27.8571 27.8571 26.2582 27.8571 24.2857V5.71429C27.8571 3.74184 26.2582 2.14286 24.2857 2.14286H5.71428C3.74184 2.14286 2.14286 3.74184 2.14286 5.71429V24.2857C2.14286 26.2582 3.74184 27.8571 5.71428 27.8571H24.2857Z" fill="#D6D6D6" fill-opacity="0.85"/>
<path d="M22.8571 10.3571H18.5714C17.9797 10.3571 17.5 10.8368 17.5 11.4286C17.5 12.0203 17.9797 12.5 18.5714 12.5H19.9L14.8143 17.5857L11.9571 14.7286C11.199 13.973 9.97247 13.973 9.21429 14.7286L5.48572 18.3429C5.06792 18.7612 5.06792 19.4388 5.48572 19.8571C5.68555 20.0595 5.95848 20.1728 6.24286 20.1714C6.52756 20.1744 6.8011 20.0609 7 19.8571L10.5286 16.3286L13.3857 19.1857C14.1488 19.9429 15.3798 19.9429 16.1429 19.1857L21.7286 13.6V15.7143C21.7286 16.306 22.2083 16.7857 22.8 16.7857C23.3917 16.7857 23.8714 16.306 23.8714 15.7143V11.4286C23.8652 10.8613 23.4232 10.3944 22.8571 10.3571Z" fill="#D6D6D6" fill-opacity="0.85"/>
</svg>
