<svg width="15" height="15" viewBox="0 0 15 15" fill="none" xmlns="http://www.w3.org/2000/svg">
<path d="M2.8025 1.66667C2.85 2.40833 2.96875 3.13333 3.15875 3.825L2.20875 4.825C1.88417 3.825 1.67833 2.76667 1.60708 1.66667H2.8025ZM10.6083 11.6833C11.2812 11.8833 11.97 12.0083 12.6667 12.0583V13.3C11.6217 13.225 10.6163 13.0083 9.65833 12.675L10.6083 11.6833ZM3.5625 0H0.791667C0.35625 0 0 0.375 0 0.833333C0 8.65833 6.02458 15 13.4583 15C13.8938 15 14.25 14.625 14.25 14.1667V11.2583C14.25 10.8 13.8938 10.425 13.4583 10.425C12.4767 10.425 11.5188 10.2583 10.6321 9.95C10.5529 9.91667 10.4658 9.90833 10.3867 9.90833C10.1808 9.90833 9.98292 9.99167 9.82458 10.15L8.08292 11.9833C5.8425 10.775 4.00583 8.85 2.86583 6.49167L4.6075 4.65833C4.82917 4.425 4.8925 4.1 4.80542 3.80833C4.5125 2.875 4.35417 1.875 4.35417 0.833333C4.35417 0.375 3.99792 0 3.5625 0Z" fill="#94A2B8"/>
</svg>
