<svg width="24" height="30" viewBox="0 0 24 30" fill="none" xmlns="http://www.w3.org/2000/svg">
<path fill-rule="evenodd" clip-rule="evenodd" d="M23.37 22.065L23.73 23.775C24.0712 25.2534 23.7343 26.8069 22.8115 28.0112C21.8887 29.2155 20.4763 29.9448 18.96 30H5.04002C3.52378 29.9448 2.11137 29.2155 1.18854 28.0112C0.265708 26.8069 -0.071131 25.2534 0.270019 23.775L0.630019 22.065C1.04407 19.7501 3.03395 18.049 5.38502 18H18.615C20.9661 18.049 22.956 19.7501 23.37 22.065ZM18.96 27.735C19.7217 27.7262 20.4385 27.3733 20.91 26.775V26.79C21.4886 26.0643 21.714 25.1187 21.525 24.21L21.165 22.5C20.9653 21.2327 19.897 20.2838 18.615 20.235H5.38502C4.10307 20.2838 3.03477 21.2327 2.83502 22.5L2.47502 24.21C2.29076 25.1139 2.51592 26.0529 3.09002 26.775C3.56152 27.3733 4.27834 27.7262 5.04002 27.735H18.96Z" fill="#D6D6D6" fill-opacity="0.85"/>
<path fill-rule="evenodd" clip-rule="evenodd" d="M12.75 15H11.25C7.93629 15 5.25 12.3137 5.25 8.99996V5.03996C5.246 3.70205 5.77571 2.41778 6.72176 1.47173C7.66782 0.525676 8.95208 -0.00403832 10.29 -3.85476e-05H13.71C15.0479 -0.00403832 16.3322 0.525676 17.2782 1.47173C18.2243 2.41778 18.754 3.70205 18.75 5.03996V8.99996C18.75 12.3137 16.0637 15 12.75 15ZM10.29 2.24996C8.74912 2.24996 7.5 3.49909 7.5 5.03996V8.99996C7.5 11.071 9.17893 12.75 11.25 12.75H12.75C14.8211 12.75 16.5 11.071 16.5 8.99996V5.03996C16.5 4.30001 16.2061 3.59036 15.6828 3.06713C15.1596 2.54391 14.45 2.24996 13.71 2.24996H10.29Z" fill="#D6D6D6" fill-opacity="0.85"/>
</svg>
